<?xml version="1.0" encoding="UTF-8" standalone="no"?>
<svg xmlns:dc="http://purl.org/dc/elements/1.1/" xmlns:cc="http://web.resource.org/cc/" xmlns:rdf="http://www.w3.org/1999/02/22-rdf-syntax-ns#" xmlns:svg="http://www.w3.org/2000/svg" xmlns="http://www.w3.org/2000/svg" version="1.1" width="840px" height="600px"><defs id="SctDiagramsDefs"><marker id="BlackTriangle" refX="0" refY="10" markerWidth="8" markerHeight="6" orient="auto" viewBox="0 0 22 20" markerUnits="strokeWidth" fill="black" stroke="black" stroke-width="2"><path d="M 0 0 L 20 10 L 0 20 z"/></marker><marker id="ClearTriangle" refX="0" refY="10" markerWidth="8" markerHeight="8" orient="auto" viewBox="0 0 22 20" markerUnits="strokeWidth" fill="white" stroke="black" stroke-width="2"><path d="M 0 0 L 20 10 L 0 20 z"/></marker><marker id="LineMarker" refX="0" refY="10" markerWidth="8" markerHeight="8" orient="auto" viewBox="0 0 22 20" markerUnits="strokeWidth" fill="white" stroke="black" stroke-width="2"><path d="M 0 10 L 20 10"/></marker></defs><rect x="8" y="8" width="250" height="41.5" fill="white" stroke="#333" stroke-width="1"/><rect x="10" y="10" width="246" height="37.5" id="rect0" fill="#ccccff" stroke="#333" stroke-width="1"/><text x="20" y="26" font-family="&quot;Helvetica Neue&quot;,Helvetica,Arial,sans-serif" font-size="10" fill="black">40600002</text><text x="20" y="41" font-family="&quot;Helvetica Neue&quot;,Helvetica,Arial,sans-serif" font-size="12" fill="black">Pneumococcal bronchitis (disorder)</text><g><circle cx="100" cy="91.5" r="20" fill="white" stroke="black" stroke-width="2"/><line x1="93" y1="86.5" x2="107" y2="86.5" stroke="black" stroke-width="2"/><line x1="93" y1="91.5" x2="107" y2="91.5" stroke="black" stroke-width="2"/><line x1="93" y1="96.5" x2="107" y2="96.5" stroke="black" stroke-width="2"/></g><polyline points="48,49.5 48,91.5 65,91.5" id="poly1" fill="none" stroke="black" stroke-width="2" marker-end="url(#BlackTriangle)"/><circle cx="155" cy="91.5" r="10" fill="black" stroke="black" stroke-width="2"/><polyline points="120,91.5 120,91.5 130,91.5" id="poly1" fill="none" stroke="black" stroke-width="2" marker-end="url(#LineMarker)"/><rect x="193" y="71.5" width="313" height="41.5" fill="white" stroke="#333" stroke-width="1"/><rect x="195" y="73.5" width="309" height="37.5" id="rect1" fill="#ccccff" stroke="#333" stroke-width="1"/><text x="205" y="89.5" font-family="&quot;Helvetica Neue&quot;,Helvetica,Arial,sans-serif" font-size="10" fill="black">312119006</text><text x="205" y="104.5" font-family="&quot;Helvetica Neue&quot;,Helvetica,Arial,sans-serif" font-size="12" fill="black">Bacterial lower respiratory infection (disorder)</text><polyline points="155,91.5 155,92.25 178,92.25" id="poly1" fill="none" stroke="black" stroke-width="2" marker-end="url(#ClearTriangle)"/><rect x="193" y="138" width="153" height="41.5" fill="white" stroke="#333" stroke-width="1"/><rect x="195" y="140" width="149" height="37.5" id="rect2" fill="#ccccff" stroke="#333" stroke-width="1"/><text x="205" y="156" font-family="&quot;Helvetica Neue&quot;,Helvetica,Arial,sans-serif" font-size="10" fill="black">32398004</text><text x="205" y="171" font-family="&quot;Helvetica Neue&quot;,Helvetica,Arial,sans-serif" font-size="12" fill="black">Bronchitis (disorder)</text><polyline points="155,91.5 155,158.75 178,158.75" id="poly1" fill="none" stroke="black" stroke-width="2" marker-end="url(#ClearTriangle)"/><rect x="193" y="204.5" width="286" height="41.5" fill="white" stroke="#333" stroke-width="1"/><rect x="195" y="206.5" width="282" height="37.5" id="rect3" fill="#ccccff" stroke="#333" stroke-width="1"/><text x="205" y="222.5" font-family="&quot;Helvetica Neue&quot;,Helvetica,Arial,sans-serif" font-size="10" fill="black">233795005</text><text x="205" y="237.5" font-family="&quot;Helvetica Neue&quot;,Helvetica,Arial,sans-serif" font-size="12" fill="black">Infectious disorder of bronchus (disorder)</text><polyline points="155,91.5 155,225.25 178,225.25" id="poly1" fill="none" stroke="black" stroke-width="2" marker-end="url(#ClearTriangle)"/><rect x="193" y="271" width="303" height="41.5" fill="white" stroke="#333" stroke-width="1"/><rect x="195" y="273" width="299" height="37.5" id="rect4" fill="#ccccff" stroke="#333" stroke-width="1"/><text x="205" y="289" font-family="&quot;Helvetica Neue&quot;,Helvetica,Arial,sans-serif" font-size="10" fill="black">16814004</text><text x="205" y="304" font-family="&quot;Helvetica Neue&quot;,Helvetica,Arial,sans-serif" font-size="12" fill="black">Pneumococcal infectious disease (disorder)</text><polyline points="155,91.5 155,291.75 178,291.75" id="poly1" fill="none" stroke="black" stroke-width="2" marker-end="url(#ClearTriangle)"/><circle cx="195" cy="354.5" r="20" fill="white" stroke="black" stroke-width="2"/><polyline points="155,91.5 155,354.5 160,354.5" id="poly1" fill="none" stroke="black" stroke-width="2" marker-end="url(#BlackTriangle)"/><circle cx="250" cy="354.5" r="10" fill="black" stroke="black" stroke-width="2"/><polyline points="215,354.5 215,354.5 225,354.5" id="poly1" fill="none" stroke="black" stroke-width="2" marker-end="url(#BlackTriangle)"/><rect x="278" y="334.5" width="163" height="41.5" rx="18" ry="18" fill="white" stroke="#333" stroke-width="1"/><rect x="280" y="336.5" width="159" height="37.5" rx="18" ry="18" id="rect5" fill="#ffffcc" stroke="#333" stroke-width="1"/><text x="290" y="352.5" font-family="&quot;Helvetica Neue&quot;,Helvetica,Arial,sans-serif" font-size="10" fill="black">363698007</text><text x="290" y="367.5" font-family="&quot;Helvetica Neue&quot;,Helvetica,Arial,sans-serif" font-size="12" fill="black">Finding site (attribute)</text><polyline points="250,354.5 250,355.25 263,355.25" id="poly1" fill="none" stroke="black" stroke-width="2" marker-end="url(#BlackTriangle)"/><rect x="473" y="336.5" width="215" height="37.5" id="rect6" fill="#99ccff" stroke="#333" stroke-width="2"/><text x="483" y="352.5" font-family="&quot;Helvetica Neue&quot;,Helvetica,Arial,sans-serif" font-size="10" fill="black">955009</text><text x="483" y="367.5" font-family="&quot;Helvetica Neue&quot;,Helvetica,Arial,sans-serif" font-size="12" fill="black">Bronchial structure (body structure)</text><polyline points="441,355.25 441,355.25 458,355.25" id="poly1" fill="none" stroke="black" stroke-width="2" marker-end="url(#BlackTriangle)"/><rect x="278" y="397" width="222" height="41.5" rx="18" ry="18" fill="white" stroke="#333" stroke-width="1"/><rect x="280" y="399" width="218" height="37.5" rx="18" ry="18" id="rect7" fill="#ffffcc" stroke="#333" stroke-width="1"/><text x="290" y="415" font-family="&quot;Helvetica Neue&quot;,Helvetica,Arial,sans-serif" font-size="10" fill="black">370135005</text><text x="290" y="430" font-family="&quot;Helvetica Neue&quot;,Helvetica,Arial,sans-serif" font-size="12" fill="black">Pathological process (attribute)</text><polyline points="250,354.5 250,417.75 263,417.75" id="poly1" fill="none" stroke="black" stroke-width="2" marker-end="url(#BlackTriangle)"/><rect x="532" y="399" width="208" height="37.5" id="rect8" fill="#99ccff" stroke="#333" stroke-width="2"/><text x="542" y="415" font-family="&quot;Helvetica Neue&quot;,Helvetica,Arial,sans-serif" font-size="10" fill="black">441862004</text><text x="542" y="430" font-family="&quot;Helvetica Neue&quot;,Helvetica,Arial,sans-serif" font-size="12" fill="black">Infectious process (qualifier value)</text><polyline points="500,417.75 500,417.75 517,417.75" id="poly1" fill="none" stroke="black" stroke-width="2" marker-end="url(#BlackTriangle)"/><rect x="278" y="459.5" width="222" height="41.5" rx="18" ry="18" fill="white" stroke="#333" stroke-width="1"/><rect x="280" y="461.5" width="218" height="37.5" rx="18" ry="18" id="rect9" fill="#ffffcc" stroke="#333" stroke-width="1"/><text x="290" y="477.5" font-family="&quot;Helvetica Neue&quot;,Helvetica,Arial,sans-serif" font-size="10" fill="black">116676008</text><text x="290" y="492.5" font-family="&quot;Helvetica Neue&quot;,Helvetica,Arial,sans-serif" font-size="12" fill="black">Associated morphology (attribute)</text><polyline points="250,354.5 250,480.25 263,480.25" id="poly1" fill="none" stroke="black" stroke-width="2" marker-end="url(#BlackTriangle)"/><rect x="532" y="461.5" width="303" height="37.5" id="rect10" fill="#99ccff" stroke="#333" stroke-width="2"/><text x="542" y="477.5" font-family="&quot;Helvetica Neue&quot;,Helvetica,Arial,sans-serif" font-size="10" fill="black">409774005</text><text x="542" y="492.5" font-family="&quot;Helvetica Neue&quot;,Helvetica,Arial,sans-serif" font-size="12" fill="black">Inflammatory morphology (morphologic abnormality)</text><polyline points="500,480.25 500,480.25 517,480.25" id="poly1" fill="none" stroke="black" stroke-width="2" marker-end="url(#BlackTriangle)"/><rect x="278" y="522" width="193" height="41.5" rx="18" ry="18" fill="white" stroke="#333" stroke-width="1"/><rect x="280" y="524" width="189" height="37.5" rx="18" ry="18" id="rect11" fill="#ffffcc" stroke="#333" stroke-width="1"/><text x="290" y="540" font-family="&quot;Helvetica Neue&quot;,Helvetica,Arial,sans-serif" font-size="10" fill="black">246075003</text><text x="290" y="555" font-family="&quot;Helvetica Neue&quot;,Helvetica,Arial,sans-serif" font-size="12" fill="black">Causative agent (attribute)</text><polyline points="250,354.5 250,542.75 263,542.75" id="poly1" fill="none" stroke="black" stroke-width="2" marker-end="url(#BlackTriangle)"/><rect x="503" y="524" width="230" height="37.5" id="rect12" fill="#99ccff" stroke="#333" stroke-width="2"/><text x="513" y="540" font-family="&quot;Helvetica Neue&quot;,Helvetica,Arial,sans-serif" font-size="10" fill="black">9861002</text><text x="513" y="555" font-family="&quot;Helvetica Neue&quot;,Helvetica,Arial,sans-serif" font-size="12" fill="black">Streptococcus pneumoniae (organism)</text><polyline points="471,542.75 471,542.75 488,542.75" id="poly1" fill="none" stroke="black" stroke-width="2" marker-end="url(#BlackTriangle)"/></svg>
